<svg width="0" height="0" class="hidden">
  <symbol fill="none" xmlns="http://www.w3.org/2000/svg" viewBox="0 0 48 48" id="linkedin">
    <circle cx="24" cy="24" r="20" fill="#ff5722"></circle>
    <path fill-rule="evenodd" clip-rule="evenodd" d="M18.7747 14.2839C18.7747 15.529 17.8267 16.5366 16.3442 16.5366C14.9194 16.5366 13.9713 15.529 14.0007 14.2839C13.9713 12.9783 14.9193 12 16.3726 12C17.8267 12 18.7463 12.9783 18.7747 14.2839ZM14.1199 32.8191V18.3162H18.6271V32.8181H14.1199V32.8191Z" fill="white"></path>
    <path fill-rule="evenodd" clip-rule="evenodd" d="M22.2393 22.9446C22.2393 21.1357 22.1797 19.5935 22.1201 18.3182H26.0351L26.2432 20.305H26.3322C26.9254 19.3854 28.4079 17.9927 30.8101 17.9927C33.7752 17.9927 35.9995 19.9502 35.9995 24.219V32.821H31.4922V24.7838C31.4922 22.9144 30.8404 21.6399 29.2093 21.6399C27.9633 21.6399 27.2224 22.4999 26.9263 23.3297C26.8071 23.6268 26.7484 24.0412 26.7484 24.4574V32.821H22.2411V22.9446H22.2393Z" fill="white"></path>
  </symbol>
  <symbol fill="none" xmlns="http://www.w3.org/2000/svg" viewBox="0 0 48 48" id="twitter">
    <circle cx="24" cy="24" r="20" fill="#ff5722"></circle>
    <path fill-rule="evenodd" clip-rule="evenodd" d="M36 16.3086C35.1177 16.7006 34.1681 16.9646 33.1722 17.0838C34.1889 16.4742 34.9697 15.5095 35.3368 14.36C34.3865 14.9247 33.3314 15.3335 32.2107 15.5551C31.3123 14.5984 30.0316 14 28.6165 14C25.8975 14 23.6928 16.2047 23.6928 18.9237C23.6928 19.3092 23.7368 19.6852 23.8208 20.046C19.7283 19.8412 16.1005 17.8805 13.6719 14.9015C13.2479 15.6287 13.0055 16.4742 13.0055 17.3766C13.0055 19.0845 13.8735 20.5916 15.1958 21.4747C14.3878 21.4491 13.6295 21.2275 12.9647 20.8587V20.9203C12.9647 23.3066 14.663 25.296 16.9141 25.7496C16.5013 25.8616 16.0661 25.9224 15.6174 25.9224C15.2998 25.9224 14.991 25.8912 14.6902 25.8336C15.3166 27.7895 17.1357 29.2134 19.2899 29.2534C17.6052 30.5733 15.4822 31.3612 13.1751 31.3612C12.7767 31.3612 12.3848 31.338 12 31.2916C14.1791 32.6884 16.7669 33.5043 19.5475 33.5043C28.6037 33.5043 33.5562 26.0016 33.5562 19.4956C33.5562 19.282 33.5522 19.0693 33.5418 18.8589C34.5049 18.1629 35.34 17.2958 36 16.3086Z" fill="white"></path>
  </symbol>
  <symbol fill="none" xmlns="http://www.w3.org/2000/svg" viewBox="0 0 32 32" id="telegram">
    <circle cx="16" cy="16" r="14" fill="#ff5722"></circle>
    <path d="M22.9866 10.2088C23.1112 9.40332 22.3454 8.76755 21.6292 9.082L7.36482 15.3448C6.85123 15.5703 6.8888 16.3483 7.42147 16.5179L10.3631 17.4547C10.9246 17.6335 11.5325 17.541 12.0228 17.2023L18.655 12.6203C18.855 12.4821 19.073 12.7665 18.9021 12.9426L14.1281 17.8646C13.665 18.3421 13.7569 19.1512 14.314 19.5005L19.659 22.8523C20.2585 23.2282 21.0297 22.8506 21.1418 22.1261L22.9866 10.2088Z" fill="white"></path>
    <defs>
      <linearGradient id="paint0_linear_87_7225" x1="16" y1="2" x2="16" y2="30" gradientUnits="userSpaceOnUse">
        <stop stop-color="#37BBFE"></stop>
        <stop offset="1" stop-color="#007DBB"></stop>
      </linearGradient>
    </defs>
  </symbol>
  <symbol xmlns="http://www.w3.org/2000/svg" viewBox="0 0 64 64" id="message">
    <path fill="#ff5722" d="M13.281 1.457c6.434-.031 12.871-.039 19.305-.02 17.879.012 19.227-.003 20.457.364.172.054.34.113.555.183a12.773 12.773 0 0 1 8.75 10.036c.242 1.386.238 28.187-.004 29.68-.668 4.12-3.559 7.835-7.39 9.5-2.313 1-2.872 1.066-9.138 1.066H40.7l-4.351 4.343L32 60.957l-4.348-4.348-4.351-4.343h-5.117c-6.266 0-6.825-.067-9.137-1.067-3.832-1.664-6.723-5.379-7.39-9.5-.243-1.492-.247-28.293-.005-29.68A12.76 12.76 0 0 1 10.56 1.942c.668-.203 1.832-.41 2.722-.484Zm39 5.43-.922-.328-19.093-.016c-15.54-.02-19.211.008-19.73.121-2.688.594-4.962 2.75-5.731 5.438l-.246.859v13.867c0 12.973-.02 14.145.359 15.172.059.156.125.309.203.5.707 1.738 2.39 3.438 4.09 4.125 1.394.563 1.324.555 7.988.598l6.242.039 3.278 3.273L32 53.813l3.281-3.278 3.278-3.273 6.242-.04c6.664-.042 6.594-.035 7.988-.597 1.711-.695 3.383-2.387 4.106-4.156.062-.16.12-.297.171-.434.383-1.062.375-2.265.375-15.316V12.96l-.246-.86a7.986 7.986 0 0 0-4.914-5.214Zm0 0"></path>
  </symbol>
  <symbol xmlns="http://www.w3.org/2000/svg" viewBox="0 0 64 64" id="location">
    <path fill="#ff5722" d="M32 5.332C21.68 5.332 13.332 13.68 13.332 24 13.332 38 32 58.668 32 58.668S50.668 38 50.668 24C50.668 13.68 42.32 5.332 32 5.332ZM18.668 24c0-7.36 5.973-13.332 13.332-13.332 7.36 0 13.332 5.973 13.332 13.332 0 7.68-7.68 19.172-13.332 26.348C26.453 43.227 18.668 31.602 18.668 24Zm0 0"></path>
    <path fill="#ff5722" d="M38.668 24A6.667 6.667 0 0 1 32 30.668 6.667 6.667 0 0 1 25.332 24 6.667 6.667 0 0 1 32 17.332 6.667 6.667 0 0 1 38.668 24Zm0 0"></path>
  </symbol>
  <symbol xmlns="http://www.w3.org/2000/svg" viewBox="0 0 64 64" id="calling">
    <path fill="#ff5722" d="M39.309.129a2.836 2.836 0 0 0-1.496 1.273 2.663 2.663 0 0 0-.126 2.266c.301.734.915 1.297 1.672 1.535.207.063.637.145.961.18 1.957.226 4.524 1.015 6.559 2.015a20.905 20.905 0 0 1 9.805 9.895c.992 2.062 1.562 3.922 1.925 6.266.192 1.222.395 1.71.926 2.222.492.469 1.035.672 1.797.672.766 0 1.309-.203 1.797-.672.809-.773.976-1.539.715-3.23a26.59 26.59 0 0 0-7.52-14.875C52.293 3.645 47.207 1.07 41.492.164c-1.16-.187-1.73-.195-2.183-.035M9.332 2.839a8.082 8.082 0 0 0-6.246 6.493c-.402 2.3.742 8.61 2.508 13.867 3.59 10.684 10.414 20.2 19.242 26.828a58.21 58.21 0 0 0 15.144 8.18c4.766 1.695 11.141 3.023 13.833 2.883 2.917-.156 5.425-1.836 6.718-4.504.75-1.555.75-1.527.75-7.52 0-6.05.008-5.968-.808-7.632a7.91 7.91 0 0 0-4.57-4.008c-.723-.2-1.454-.356-2.192-.473-2.078-.351-3.324-.664-5.55-1.402-1.716-.567-1.884-.602-3.114-.649-1.543-.058-2.488.118-3.649.672-1.148.551-1.648.926-3.015 2.27l-1.246 1.218-1.098-.75a40.86 40.86 0 0 1-10.465-10.507l-.633-.942 1.215-1.246c1.352-1.383 1.739-1.898 2.278-3.035.535-1.133.714-2.11.66-3.648-.043-1.211-.078-1.38-.645-3.094-.738-2.227-1.05-3.473-1.402-5.55a20.082 20.082 0 0 0-.473-2.192 7.896 7.896 0 0 0-4.008-4.57c-1.632-.801-1.527-.79-7.312-.821-4.316-.023-5.297-.004-5.922.133M20.215 8.28c.984.535 1.265 1.078 1.61 3.11.331 1.98.866 4.117 1.484 5.93.527 1.558.601 2.296.308 3.011-.113.27-.906 1.156-2.285 2.55-2.012 2.04-2.121 2.169-2.297 2.774-.332 1.13-.02 1.914 1.902 4.797a45.326 45.326 0 0 0 12.344 12.418c3.14 2.117 3.903 2.434 5.063 2.094.605-.176.734-.281 2.781-2.305 1.316-1.305 2.297-2.183 2.535-2.285.692-.29 1.473-.207 3.02.316a39.36 39.36 0 0 0 5.925 1.485c2.04.344 2.598.644 3.141 1.664.184.344.203.726.234 4.988.016 3.027-.011 4.758-.085 5.035-.278 1.032-1.422 1.922-2.47 1.922-.663 0-2.562-.262-4.304-.597C36.09 52.675 24.27 44.934 16.965 34.133c-3.516-5.203-5.817-10.207-7.305-15.899-.672-2.582-1.336-6.347-1.336-7.629-.004-.68.426-1.562.969-1.996.762-.605.8-.605 5.855-.578 4.528.024 4.649.028 5.067.25m19.094 2.516a2.657 2.657 0 0 0-1.805 2.535c0 .566.055.8.309 1.266.41.75.988 1.136 2.105 1.414 4.07 1.008 6.977 3.883 8.031 7.93.332 1.28.684 1.824 1.453 2.245.723.391 1.586.426 2.336.098a2.664 2.664 0 0 0 1.508-1.793c.348-1.305-.84-4.691-2.512-7.16-.84-1.242-2.824-3.227-4.066-4.066-2.625-1.778-6.066-2.93-7.36-2.47"></path>
  </symbol>
</svg>